<svg width="17" height="15" viewBox="0 0 17 15" fill="none" xmlns="http://www.w3.org/2000/svg">
<path d="M7.23496 2.51621L11.3123 6.59355C11.5514 6.83262 11.6875 7.16133 11.6875 7.5C11.6875 7.83867 11.5514 8.16738 11.3123 8.40645L7.23496 12.4838C7.02246 12.6963 6.73691 12.8125 6.43809 12.8125C5.81719 12.8125 5.3125 12.3078 5.3125 11.6869V9.625H1.0625C0.474805 9.625 0 9.1502 0 8.5625V6.4375C0 5.8498 0.474805 5.375 1.0625 5.375H5.3125V3.31309C5.3125 2.69219 5.81719 2.1875 6.43809 2.1875C6.73691 2.1875 7.02246 2.30703 7.23496 2.51621ZM11.6875 12.8125H13.8125C14.4002 12.8125 14.875 12.3377 14.875 11.75V3.25C14.875 2.6623 14.4002 2.1875 13.8125 2.1875H11.6875C11.0998 2.1875 10.625 1.7127 10.625 1.125C10.625 0.537305 11.0998 0.0625 11.6875 0.0625H13.8125C15.5723 0.0625 17 1.49023 17 3.25V11.75C17 13.5098 15.5723 14.9375 13.8125 14.9375H11.6875C11.0998 14.9375 10.625 14.4627 10.625 13.875C10.625 13.2873 11.0998 12.8125 11.6875 12.8125Z" fill="white"/>
</svg>
